<svg width="309" height="51" viewBox="0 0 309 51" fill="none" xmlns="http://www.w3.org/2000/svg">
<path d="M28.1963 4.095C28.7696 2.94833 29.5579 2.375 30.5613 2.375H32.6038C32.9979 2.375 33.3383 2.51833 33.625 2.805C33.9117 3.09167 34.055 3.43208 34.055 3.82625V38.5487C34.055 38.9429 33.9117 39.2833 33.625 39.57C33.3383 39.8567 32.9979 40 32.6038 40H30.4C30.0058 40 29.6654 39.8567 29.3788 39.57C29.0921 39.2833 28.9488 38.9429 28.9488 38.5487V13.0712L20.5638 29.25C20.2771 29.8233 19.9546 30.2533 19.5963 30.54C19.2738 30.8267 18.8617 30.97 18.36 30.97H16.3175C15.8158 30.97 15.3858 30.8267 15.0275 30.54C14.705 30.2533 14.4004 29.8233 14.1138 29.25L5.72875 13.0712V38.5487C5.72875 38.9429 5.58542 39.2833 5.29875 39.57C5.01208 39.8567 4.67167 40 4.2775 40H2.07375C1.67958 40 1.33917 39.8567 1.0525 39.57C0.765834 39.2833 0.6225 38.9429 0.6225 38.5487V3.82625C0.6225 3.43208 0.765834 3.09167 1.0525 2.805C1.33917 2.51833 1.67958 2.375 2.07375 2.375H4.11625C5.11958 2.375 5.90792 2.94833 6.48125 4.095L17.3388 25.1112L28.1963 4.095ZM59.3146 22.3162V21.6175C59.3146 19.8617 58.7233 18.5179 57.5408 17.5862C56.3941 16.6187 54.8891 16.135 53.0258 16.135C51.5925 16.135 50.4637 16.3858 49.6396 16.8875C48.8512 17.3533 48.0987 18.07 47.3821 19.0375C47.1671 19.3242 46.9341 19.5212 46.6833 19.6287C46.4325 19.7362 46.0921 19.79 45.6621 19.79H44.0496C43.6554 19.79 43.2971 19.6467 42.9746 19.36C42.6879 19.0733 42.5625 18.7329 42.5983 18.3387C42.7058 17.2637 43.2254 16.2067 44.1571 15.1675C45.1246 14.0925 46.3966 13.2146 47.9733 12.5337C49.55 11.8529 51.2341 11.5125 53.0258 11.5125C56.3583 11.5125 59.0458 12.4442 61.0883 14.3075C63.1666 16.1708 64.2058 18.7867 64.2058 22.155V38.5487C64.2058 38.9429 64.0625 39.2833 63.7758 39.57C63.4891 39.8567 63.1487 40 62.7546 40H60.7658C60.3716 40 60.0312 39.8567 59.7446 39.57C59.4579 39.2833 59.3146 38.9429 59.3146 38.5487V36.345C58.7412 37.635 57.5229 38.6562 55.6596 39.4087C53.7962 40.1613 51.9329 40.5375 50.0696 40.5375C48.2421 40.5375 46.6116 40.215 45.1783 39.57C43.745 38.8892 42.6341 37.9754 41.8458 36.8287C41.0933 35.6821 40.7171 34.3921 40.7171 32.9587C40.7171 30.2712 41.7204 28.175 43.7271 26.67C45.7337 25.1292 48.4033 24.09 51.7358 23.5525L59.3146 22.3162ZM59.3146 26.6162L52.9721 27.6375C50.6429 27.9958 48.8333 28.5871 47.5433 29.4112C46.2533 30.1996 45.6083 31.2029 45.6083 32.4212C45.6083 33.3171 46.0204 34.1233 46.8446 34.84C47.6687 35.5567 48.9229 35.915 50.6071 35.915C53.1871 35.915 55.2833 35.1804 56.8958 33.7112C58.5083 32.2421 59.3146 30.325 59.3146 27.96V26.6162ZM79.3579 30.5937C79.3579 32.1346 79.6624 33.3171 80.2716 34.1412C80.9166 34.9654 82.117 35.3775 83.8729 35.3775H86.7216C87.1158 35.3775 87.4562 35.5208 87.7429 35.8075C88.0295 36.0942 88.1729 36.4346 88.1729 36.8287V38.5487C88.1729 38.9429 88.0295 39.2833 87.7429 39.57C87.4562 39.8567 87.1158 40 86.7216 40H83.3354C80.2895 40 78.0499 39.2117 76.6166 37.635C75.1833 36.0225 74.4666 33.6754 74.4666 30.5937V16.6725H70.4891C70.0949 16.6725 69.7545 16.5292 69.4679 16.2425C69.1812 15.9558 69.0379 15.6154 69.0379 15.2212V13.5012C69.0379 13.1071 69.1812 12.7667 69.4679 12.48C69.7545 12.1933 70.0949 12.05 70.4891 12.05H74.4666V3.28875C74.4666 2.89458 74.6099 2.55417 74.8966 2.2675C75.1833 1.98083 75.5237 1.8375 75.9179 1.8375H77.9066C78.3008 1.8375 78.6412 1.98083 78.9279 2.2675C79.2145 2.55417 79.3579 2.89458 79.3579 3.28875V12.05H86.1841C86.5783 12.05 86.9187 12.1933 87.2054 12.48C87.492 12.7667 87.6354 13.1071 87.6354 13.5012V15.2212C87.6354 15.6154 87.492 15.9558 87.2054 16.2425C86.9187 16.5292 86.5783 16.6725 86.1841 16.6725H79.3579V30.5937ZM104.588 11.5125C108.422 11.5125 111.45 12.7308 113.671 15.1675C115.893 17.6042 117.004 20.9187 117.004 25.1112V26.5625C117.004 26.9567 116.861 27.2971 116.574 27.5837C116.287 27.8704 115.947 28.0137 115.553 28.0137H97.0626V28.3362C97.1343 30.7012 97.8509 32.5646 99.2126 33.9262C100.61 35.2521 102.402 35.915 104.588 35.915C106.379 35.915 107.759 35.6821 108.726 35.2162C109.73 34.7504 110.626 34.0875 111.414 33.2275C111.701 32.9408 111.951 32.7437 112.166 32.6362C112.417 32.5287 112.74 32.475 113.134 32.475H114.746C115.176 32.475 115.535 32.6183 115.821 32.905C116.108 33.1917 116.233 33.5321 116.198 33.9262C116.054 34.8937 115.517 35.8971 114.585 36.9362C113.689 37.9396 112.381 38.7996 110.661 39.5162C108.977 40.1971 106.953 40.5375 104.588 40.5375C102.294 40.5375 100.252 40.0179 98.4601 38.9787C96.6684 37.9037 95.2351 36.4346 94.1601 34.5712C93.1209 32.7079 92.4938 30.6117 92.2788 28.2825C92.2072 27.2075 92.1713 26.3833 92.1713 25.81C92.1713 25.2367 92.2072 24.4125 92.2788 23.3375C92.4938 21.1158 93.1209 19.1092 94.1601 17.3175C95.2351 15.5258 96.6505 14.1104 98.4063 13.0712C100.198 12.0321 102.258 11.5125 104.588 11.5125ZM112.166 23.4987V23.3375C112.166 21.1517 111.468 19.4137 110.07 18.1237C108.708 16.7979 106.881 16.135 104.588 16.135C102.509 16.135 100.736 16.7979 99.2663 18.1237C97.833 19.4496 97.0984 21.1875 97.0626 23.3375V23.4987H112.166ZM103.996 8.01875C103.602 8.01875 103.262 7.94708 102.975 7.80375C102.688 7.66041 102.366 7.39166 102.008 6.9975L97.0626 2.0525C96.8834 1.87333 96.7938 1.64042 96.7938 1.35375C96.7938 0.780415 97.0805 0.493749 97.6538 0.493749H98.7826C99.1051 0.493749 99.3738 0.547499 99.5888 0.654997C99.8038 0.726665 100.091 0.869999 100.449 1.085L104.534 3.82625L108.619 1.085C108.977 0.869999 109.264 0.726665 109.479 0.654997C109.694 0.547499 109.963 0.493749 110.285 0.493749H111.414C111.987 0.493749 112.274 0.780415 112.274 1.35375C112.274 1.64042 112.184 1.87333 112.005 2.0525L107.06 6.9975C106.702 7.39166 106.379 7.66041 106.093 7.80375C105.806 7.94708 105.466 8.01875 105.071 8.01875H103.996ZM129.401 6.3525C129.401 6.74667 129.257 7.08708 128.971 7.37375C128.684 7.66041 128.344 7.80375 127.95 7.80375H124.886C124.492 7.80375 124.151 7.66041 123.865 7.37375C123.578 7.08708 123.435 6.74667 123.435 6.3525V3.28875C123.435 2.89458 123.578 2.55417 123.865 2.2675C124.151 1.98083 124.492 1.8375 124.886 1.8375H127.95C128.344 1.8375 128.684 1.98083 128.971 2.2675C129.257 2.55417 129.401 2.89458 129.401 3.28875V6.3525ZM123.972 13.5012C123.972 13.1071 124.115 12.7667 124.402 12.48C124.689 12.1933 125.029 12.05 125.423 12.05H127.412C127.806 12.05 128.147 12.1933 128.433 12.48C128.72 12.7667 128.863 13.1071 128.863 13.5012V40.8063C128.863 43.8879 128.147 46.2171 126.713 47.7938C125.28 49.4063 123.04 50.2125 119.995 50.2125H118.973C118.579 50.2125 118.239 50.0692 117.952 49.7825C117.665 49.4958 117.522 49.1554 117.522 48.7613V47.0413C117.522 46.6471 117.665 46.3067 117.952 46.02C118.239 45.7333 118.579 45.59 118.973 45.59H119.457C121.213 45.59 122.395 45.1779 123.005 44.3538C123.65 43.5296 123.972 42.3471 123.972 40.8063V13.5012ZM176.87 37.85C177.228 38.2083 177.407 38.5308 177.407 38.8175C177.407 39.14 177.282 39.4267 177.031 39.6775C176.816 39.8925 176.547 40 176.225 40H172.892C172.14 40 171.495 39.7312 170.957 39.1937L155.746 24.6812V38.5487C155.746 38.9429 155.603 39.2833 155.316 39.57C155.029 39.8567 154.689 40 154.295 40H152.091C151.697 40 151.356 39.8567 151.07 39.57C150.783 39.2833 150.64 38.9429 150.64 38.5487V3.82625C150.64 3.43208 150.783 3.09167 151.07 2.805C151.356 2.51833 151.697 2.375 152.091 2.375H154.295C154.689 2.375 155.029 2.51833 155.316 2.805C155.603 3.09167 155.746 3.43208 155.746 3.82625V16.35L170.097 3.18125C170.635 2.64375 171.28 2.375 172.032 2.375H175.15C175.472 2.375 175.741 2.50041 175.956 2.75125C176.207 2.96625 176.332 3.235 176.332 3.5575C176.332 3.84417 176.153 4.16667 175.795 4.525L158.541 20.3812L176.87 37.85ZM206.412 23.4987C206.484 24.2871 206.52 25.1471 206.52 26.0787C206.52 26.9387 206.484 27.7629 206.412 28.5512C206.09 32.2062 204.818 35.1267 202.596 37.3125C200.41 39.4625 197.436 40.5375 193.674 40.5375C189.911 40.5375 186.919 39.4625 184.697 37.3125C182.512 35.1267 181.257 32.2062 180.935 28.5512C180.899 28.1571 180.881 27.3329 180.881 26.0787C180.881 24.7529 180.899 23.8929 180.935 23.4987C181.222 19.8437 182.476 16.9412 184.697 14.7912C186.919 12.6054 189.911 11.5125 193.674 11.5125C197.436 11.5125 200.428 12.6054 202.65 14.7912C204.872 16.9412 206.126 19.8437 206.412 23.4987ZM201.521 23.7675C201.306 21.4742 200.536 19.6287 199.21 18.2312C197.92 16.8337 196.074 16.135 193.674 16.135C191.273 16.135 189.409 16.8337 188.084 18.2312C186.794 19.6287 186.041 21.4742 185.826 23.7675C185.79 24.1975 185.772 24.9679 185.772 26.0787C185.772 27.1537 185.79 27.8883 185.826 28.2825C186.041 30.5758 186.794 32.4212 188.084 33.8187C189.409 35.2162 191.273 35.915 193.674 35.915C196.074 35.915 197.92 35.2162 199.21 33.8187C200.536 32.4212 201.306 30.5758 201.521 28.2825C201.593 27.4942 201.629 26.7596 201.629 26.0787C201.629 25.3979 201.593 24.6275 201.521 23.7675ZM220.557 30.5937C220.557 32.1346 220.861 33.3171 221.47 34.1412C222.115 34.9654 223.316 35.3775 225.072 35.3775H227.92C228.315 35.3775 228.655 35.5208 228.942 35.8075C229.228 36.0942 229.372 36.4346 229.372 36.8287V38.5487C229.372 38.9429 229.228 39.2833 228.942 39.57C228.655 39.8567 228.315 40 227.92 40H224.534C221.488 40 219.249 39.2117 217.815 37.635C216.382 36.0225 215.665 33.6754 215.665 30.5937V16.6725H211.688C211.294 16.6725 210.953 16.5292 210.667 16.2425C210.38 15.9558 210.237 15.6154 210.237 15.2212V13.5012C210.237 13.1071 210.38 12.7667 210.667 12.48C210.953 12.1933 211.294 12.05 211.688 12.05H215.665V3.28875C215.665 2.89458 215.809 2.55417 216.095 2.2675C216.382 1.98083 216.722 1.8375 217.117 1.8375H219.105C219.499 1.8375 219.84 1.98083 220.127 2.2675C220.413 2.55417 220.557 2.89458 220.557 3.28875V12.05H227.383C227.777 12.05 228.117 12.1933 228.404 12.48C228.691 12.7667 228.834 13.1071 228.834 13.5012V15.2212C228.834 15.6154 228.691 15.9558 228.404 16.2425C228.117 16.5292 227.777 16.6725 227.383 16.6725H220.557V30.5937ZM248.958 12.05C249.352 12.05 249.692 12.1933 249.979 12.48C250.265 12.7667 250.409 13.1071 250.409 13.5012V15.2212C250.409 15.6154 250.265 15.9558 249.979 16.2425C249.692 16.5292 249.352 16.6725 248.958 16.6725H245.84C243.833 16.6725 242.293 17.21 241.218 18.285C240.178 19.3242 239.659 20.8471 239.659 22.8537V38.5487C239.659 38.9429 239.515 39.2833 239.229 39.57C238.942 39.8567 238.602 40 238.208 40H236.219C235.825 40 235.484 39.8567 235.198 39.57C234.911 39.2833 234.768 38.9429 234.768 38.5487V13.5012C234.768 13.1071 234.911 12.7667 235.198 12.48C235.484 12.1933 235.825 12.05 236.219 12.05H238.208C238.602 12.05 238.942 12.1933 239.229 12.48C239.515 12.7667 239.659 13.1071 239.659 13.5012V15.1675C240.375 14.0925 241.235 13.3042 242.239 12.8025C243.242 12.3008 244.55 12.05 246.163 12.05H248.958ZM280.505 24.2512C280.541 24.6096 280.559 25.1829 280.559 25.9712C280.559 26.7954 280.541 27.3867 280.505 27.745C280.398 30.325 279.788 32.5825 278.678 34.5175C277.603 36.4525 276.151 37.9396 274.324 38.9787C272.532 40.0179 270.525 40.5375 268.304 40.5375C264.577 40.5375 261.8 39.3192 259.973 36.8825V38.5487C259.973 38.9429 259.829 39.2833 259.543 39.57C259.256 39.8567 258.915 40 258.521 40H256.533C256.138 40 255.798 39.8567 255.511 39.57C255.225 39.2833 255.081 38.9429 255.081 38.5487V3.28875C255.081 2.89458 255.225 2.55417 255.511 2.2675C255.798 1.98083 256.138 1.8375 256.533 1.8375H258.521C258.915 1.8375 259.256 1.98083 259.543 2.2675C259.829 2.55417 259.973 2.89458 259.973 3.28875V15.1675C260.761 14.1283 261.836 13.2683 263.198 12.5875C264.595 11.8708 266.297 11.5125 268.304 11.5125C270.561 11.5125 272.586 12.0321 274.378 13.0712C276.169 14.1104 277.603 15.5975 278.678 17.5325C279.788 19.4317 280.398 21.6712 280.505 24.2512ZM267.766 35.915C270.095 35.915 271.941 35.1804 273.303 33.7112C274.664 32.2062 275.435 30.1458 275.614 27.53C275.65 27.1717 275.668 26.67 275.668 26.025C275.668 22.9792 274.969 20.5783 273.571 18.8225C272.21 17.0308 270.275 16.135 267.766 16.135C265.509 16.135 263.699 16.8337 262.338 18.2312C260.976 19.6287 260.188 21.5817 259.973 24.09C259.937 24.4483 259.919 25.1471 259.919 26.1863C259.919 27.2612 259.937 27.9779 259.973 28.3362C260.152 30.6654 260.94 32.5108 262.338 33.8725C263.771 35.2342 265.58 35.915 267.766 35.915ZM303.814 22.3162V21.6175C303.814 19.8617 303.223 18.5179 302.04 17.5862C300.894 16.6187 299.389 16.135 297.525 16.135C296.092 16.135 294.963 16.3858 294.139 16.8875C293.351 17.3533 292.598 18.07 291.882 19.0375C291.667 19.3242 291.434 19.5212 291.183 19.6287C290.932 19.7362 290.592 19.79 290.162 19.79H288.549C288.155 19.79 287.797 19.6467 287.474 19.36C287.187 19.0733 287.062 18.7329 287.098 18.3387C287.205 17.2637 287.725 16.2067 288.657 15.1675C289.624 14.0925 290.896 13.2146 292.473 12.5337C294.049 11.8529 295.734 11.5125 297.525 11.5125C300.858 11.5125 303.545 12.4442 305.588 14.3075C307.666 16.1708 308.705 18.7867 308.705 22.155V38.5487C308.705 38.9429 308.562 39.2833 308.275 39.57C307.989 39.8567 307.648 40 307.254 40H305.265C304.871 40 304.531 39.8567 304.244 39.57C303.957 39.2833 303.814 38.9429 303.814 38.5487V36.345C303.241 37.635 302.022 38.6562 300.159 39.4087C298.296 40.1613 296.432 40.5375 294.569 40.5375C292.742 40.5375 291.111 40.215 289.678 39.57C288.244 38.8892 287.134 37.9754 286.345 36.8287C285.593 35.6821 285.217 34.3921 285.217 32.9587C285.217 30.2712 286.22 28.175 288.227 26.67C290.233 25.1292 292.903 24.09 296.235 23.5525L303.814 22.3162ZM303.814 26.6162L297.472 27.6375C295.142 27.9958 293.333 28.5871 292.043 29.4112C290.753 30.1996 290.108 31.2029 290.108 32.4212C290.108 33.3171 290.52 34.1233 291.344 34.84C292.168 35.5567 293.422 35.915 295.107 35.915C297.687 35.915 299.783 35.1804 301.395 33.7112C303.008 32.2421 303.814 30.325 303.814 27.96V26.6162Z" fill="black"/>
</svg>
