<svg width="36" height="17" viewBox="0 0 36 17" fill="none" xmlns="http://www.w3.org/2000/svg">
<path d="M30.9779 10.8775C32.6979 9.26499 34.0417 7.32999 35.0092 5.07249C35.0999 4.86851 35.1864 4.66277 35.2689 4.45528L31.8576 4C31.2823 5.72319 30.4158 7.31694 29.2579 8.78124C28.0396 10.2862 26.5167 11.5404 24.6892 12.5437C22.8975 13.5112 20.8013 14.0487 18.4004 14.1562C16.2504 14.1562 14.2617 13.6546 12.4342 12.6512C10.6425 11.6479 9.08378 10.34 7.75794 8.72749C6.43211 7.11499 5.39294 5.32332 4.64044 3.35249C4.28004 2.39142 4.00595 1.43446 3.81815 0.481617L0 0C0.162123 1.66701 0.544354 3.28617 1.14669 4.85749C1.97086 7.00749 3.13544 8.90666 4.64044 10.555C6.18128 12.2033 8.04461 13.5292 10.2304 14.5325C12.4521 15.5358 14.9425 16.0375 17.7017 16.0375C20.2817 16.0375 22.7004 15.5896 24.9579 14.6937C27.2513 13.7621 29.2579 12.49 30.9779 10.8775Z" fill="#EDEDED"/>
</svg>
