<svg width="38" height="25" viewBox="0 0 38 25" fill="none" xmlns="http://www.w3.org/2000/svg">
<path d="M26.9488 1.505C24.7271 0.501667 22.2188 0 19.4238 0C16.4854 0 13.8696 0.537499 11.5763 1.6125C9.28292 2.6875 7.33001 4.10292 5.71751 5.85875C4.14084 7.61458 2.94042 9.62125 2.11626 11.8787C1.29209 14.1004 0.880005 16.3579 0.880005 18.6513C0.880005 19.2782 0.909858 19.8986 0.969566 20.5125L4.78772 20.9941C4.58341 19.9575 4.48125 18.9257 4.48125 17.8988C4.48125 16.0713 4.80376 14.2079 5.44876 12.3088C6.09376 10.4096 7.02543 8.68958 8.24376 7.14875C9.49793 5.60792 11.0029 4.35375 12.7588 3.38625C14.5146 2.38291 16.5033 1.88125 18.725 1.88125C21.0183 1.88125 23.0788 2.40083 24.9063 3.44C26.7696 4.44333 28.3642 5.76917 29.69 7.4175C31.0158 9.03 32.0371 10.8396 32.7538 12.8462C33.4704 14.8529 33.8288 16.8417 33.8288 18.8125C33.8288 20.6042 33.5242 22.4137 32.915 24.2412C32.8865 24.332 32.8573 24.4224 32.8272 24.5125L36.2384 24.9678C37.0687 22.8789 37.4838 20.6122 37.4838 18.1675C37.4838 15.7667 37.0538 13.4733 36.1938 11.2875C35.3696 9.06583 34.1692 7.13083 32.5925 5.4825C31.0517 3.79833 29.1704 2.4725 26.9488 1.505Z" fill="#EDEDED"/>
</svg>
