<svg width="25" height="23" viewBox="0 0 25 23" fill="none" xmlns="http://www.w3.org/2000/svg">
<path d="M14.6425 22.4625H14.3737C14.0871 22.4625 13.8362 22.3729 13.6212 22.1937C13.4062 21.9787 13.2092 21.7279 13.03 21.4412C12.8867 21.1546 12.7792 20.85 12.7075 20.5275C12.6358 20.205 12.6 19.9004 12.6 19.6137V4.83249H21.5225C22.3825 4.83249 23.0812 5.06541 23.6187 5.53124C24.1562 5.99708 24.425 6.55249 24.425 7.19749H24.9625V2.04608L23.8961 1.91527C23.799 2.03185 23.6887 2.14426 23.565 2.2525C23.0275 2.75416 22.3467 3.00499 21.5225 3.00499H12.6V0.5L8.99874 0V19.6137C8.99874 19.9004 8.96291 20.205 8.89124 20.5275C8.81957 20.85 8.69416 21.1546 8.51499 21.4412C8.37166 21.7279 8.19249 21.9787 7.97749 22.1937C7.76249 22.3729 7.51166 22.4625 7.22499 22.4625H6.95624L0 23L14.6425 23V22.4625Z" fill="#EDEDED"/>
</svg>
