<svg width="19" height="24" viewBox="0 0 19 24" fill="none" xmlns="http://www.w3.org/2000/svg">
<path d="M8.24643 23.4303H7.97768C7.69101 23.4303 7.44018 23.3407 7.22518 23.1615C7.01018 22.9465 6.8131 22.6957 6.63393 22.409C6.4906 22.1224 6.3831 21.8178 6.31143 21.4953C6.23977 21.1728 6.20393 20.8682 6.20393 20.5815V5.80027H15.1264C15.9864 5.80027 16.6852 6.03318 17.2227 6.49902C17.7602 6.96485 18.0289 7.52027 18.0289 8.16527H18.5664V3.01385L17.5 2.88304C17.403 2.99962 17.2926 3.11203 17.1689 3.22027C16.6314 3.72194 15.9506 3.97277 15.1264 3.97277H6.20393V1.46777L2.60268 0.967773V20.5815C2.60268 20.8682 2.56685 21.1728 2.49518 21.4953C2.42351 21.8178 2.2981 22.1224 2.11893 22.409C1.9756 22.6957 1.79643 22.9465 1.58143 23.1615C1.36643 23.3407 1.1156 23.4303 0.828932 23.4303H0.560181V23.9678H8.24643V23.4303Z" fill="#EDEDED"/>
</svg>
