<svg width="23" height="27" viewBox="0 0 23 27" fill="none" xmlns="http://www.w3.org/2000/svg">
<path d="M0.687512 26.4303H0.418762V26.9678H22.4563V20.679H21.9188C21.9188 21.0374 21.8292 21.4853 21.65 22.0228C21.5067 22.5244 21.2558 23.0082 20.8975 23.474C20.575 23.904 20.1629 24.2803 19.6613 24.6028C19.1596 24.9253 18.5683 25.0865 17.8875 25.0865H6.11626V8.80027H15.0388C15.8988 8.80027 16.5975 9.03318 17.135 9.49902C17.6725 9.96485 17.9413 10.5203 17.9413 11.1653H18.4788V4.44652H17.9413C17.9413 5.12735 17.6546 5.7186 17.0813 6.22027C16.5438 6.72194 15.8629 6.97277 15.0388 6.97277H6.11626V1.46777L2.51501 0.967773V23.5815C2.51501 23.8682 2.46126 24.1728 2.35376 24.4953C2.2821 24.8178 2.15668 25.1224 1.97751 25.409C1.83418 25.6957 1.65501 25.9465 1.44001 26.1615C1.22501 26.3407 0.974179 26.4303 0.687512 26.4303Z" fill="#EDEDED"/>
</svg>
