<svg width="29" height="27" viewBox="0 0 29 27" fill="none" xmlns="http://www.w3.org/2000/svg">
<path d="M6.68751 25.4625H6.41876L0 26.0447L28.4563 26V19.7112H27.9188C27.9188 20.0696 27.8292 20.5175 27.65 21.055C27.5067 21.5567 27.2558 22.0404 26.8975 22.5062C26.575 22.9362 26.1629 23.3125 25.6613 23.635C25.1596 23.9575 24.5683 24.1187 23.8875 24.1187H12.1163V7.83249H21.0388C21.8988 7.83249 22.5975 8.06541 23.135 8.53124C23.6725 8.99708 23.9413 9.55249 23.9413 10.1975H24.4788V3.47874H23.9413C23.9413 4.15958 23.6546 4.75083 23.0813 5.2525C22.5438 5.75416 21.8629 6.00499 21.0388 6.00499H12.1163V0.5L8.51501 0V22.6137C8.51501 22.9004 8.46126 23.205 8.35376 23.5275C8.28209 23.85 8.15667 24.1546 7.97751 24.4412C7.83417 24.7279 7.65501 24.9787 7.44001 25.1937C7.22501 25.3729 6.97417 25.4625 6.68751 25.4625Z" fill="#EDEDED"/>
</svg>
