<svg width="8" height="18" viewBox="0 0 8 18" fill="none" xmlns="http://www.w3.org/2000/svg">
<path d="M5.97222 15.4415C5.90055 15.0832 5.86472 14.7607 5.86472 14.474V1.46777L2.20972 0.967773V14.474C2.20972 14.7607 2.17389 15.0832 2.10222 15.4415C2.03055 15.764 1.90513 16.0865 1.72597 16.409C1.58263 16.6957 1.40347 16.9465 1.18847 17.1615C0.973469 17.3407 0.722633 17.4303 0.435966 17.4303H0.167221V17.9678H7.85347V17.4303H7.58472C7.29805 17.4303 7.04722 17.3228 6.83222 17.1078C6.65306 16.8928 6.47389 16.6419 6.29472 16.3553C6.15139 16.0686 6.04389 15.764 5.97222 15.4415Z" fill="#EDEDED"/>
</svg>
