<svg width="15" height="17" viewBox="0 0 15 17" fill="none" xmlns="http://www.w3.org/2000/svg">
<path d="M12.2738 14.4737C12.2021 14.1154 12.1663 13.7929 12.1663 13.5062V0.5L8.51126 0V13.5062C8.51126 13.7929 8.47543 14.1154 8.40376 14.4737C8.3321 14.7962 8.20668 15.1187 8.02751 15.4412C7.88418 15.7279 7.70501 15.9787 7.49001 16.1937C7.27501 16.3729 7.02418 16.4625 6.73751 16.4625H6.46877L0 17H14.155V16.4625H13.8863C13.5996 16.4625 13.3488 16.355 13.1338 16.14C12.9546 15.925 12.7754 15.6742 12.5963 15.3875C12.4529 15.1008 12.3454 14.7962 12.2738 14.4737Z" fill="#EDEDED"/>
</svg>
