<svg width="8" height="20" viewBox="0 0 8 20" fill="none" xmlns="http://www.w3.org/2000/svg">
<path d="M7.85347 0.537506H0.167221V1.07501H0.435966C0.722633 1.07501 0.973469 1.18251 1.18847 1.3975C1.40347 1.57667 1.58263 1.80959 1.72597 2.09626C1.90513 2.38292 2.03055 2.68751 2.10222 3.01001C2.17389 3.33251 2.20972 3.61917 2.20972 3.87V19.0125L5.86472 19.5125V3.87C5.86472 3.61917 5.90055 3.33251 5.97222 3.01001C6.07972 2.65167 6.20514 2.34709 6.34847 2.09626C6.49181 1.80959 6.67097 1.57667 6.88597 1.3975C7.10097 1.18251 7.33388 1.07501 7.58472 1.07501H7.85347V0.537506Z" fill="#EDEDED"/>
</svg>
