<svg width="15" height="19" viewBox="0 0 15 19" fill="none" xmlns="http://www.w3.org/2000/svg">
<path d="M14.1588 0H0L6.4725 0.537499H6.74125C7.02792 0.537499 7.27875 0.644999 7.49375 0.859999C7.70875 1.03917 7.88792 1.27208 8.03125 1.55875C8.21042 1.84542 8.33583 2.15 8.4075 2.4725C8.47917 2.795 8.515 3.08167 8.515 3.3325V18.475L12.17 18.975V3.3325C12.17 3.08167 12.2058 2.795 12.2775 2.4725C12.385 2.11417 12.5104 1.80958 12.6538 1.55875C12.7971 1.27208 12.9763 1.03917 13.1913 0.859999C13.4063 0.644999 13.6392 0.537499 13.89 0.537499H14.1588V0Z" fill="#EDEDED"/>
</svg>
