<svg width="19" height="21" viewBox="0 0 19 21" fill="none" xmlns="http://www.w3.org/2000/svg">
<path d="M7.96933 20.4303H7.70058C7.41391 20.4303 7.16308 20.3407 6.94808 20.1615C6.73308 19.9465 6.536 19.6957 6.35683 19.409C6.2135 19.1224 6.106 18.8178 6.03433 18.4953C5.96267 18.1728 5.92683 17.8682 5.92683 17.5815V2.80028H14.8493C15.7093 2.80028 16.4081 3.03319 16.9456 3.49903C17.4831 3.96486 17.7518 4.52028 17.7518 5.16528H18.2893V2.96778L2.32558 0.972778V17.5815C2.32558 17.8682 2.28975 18.1728 2.21808 18.4953C2.14642 18.8178 2.021 19.1224 1.84183 19.409C1.6985 19.6957 1.51933 19.9465 1.30433 20.1615C1.08933 20.3407 0.838497 20.4303 0.55183 20.4303H0.283081V20.9678H7.96933V20.4303Z" fill="#EDEDED"/>
</svg>
