<svg width="25" height="20" viewBox="0 0 25 20" fill="none" xmlns="http://www.w3.org/2000/svg">
<path d="M14.1488 19.4575H13.88C13.5933 19.4575 13.3425 19.3679 13.1275 19.1888C12.9125 18.9738 12.7154 18.7229 12.5363 18.4363C12.3929 18.1496 12.2854 17.845 12.2138 17.5225C12.1421 17.2 12.1063 16.8954 12.1063 16.6088V1.8275H21.0288C21.8888 1.8275 22.5875 2.06041 23.125 2.52625C23.6625 2.99208 23.9313 3.5475 23.9313 4.1925H24.4688V1.99501L8.50501 0V16.6088C8.50501 16.8954 8.46918 17.2 8.39751 17.5225C8.32584 17.845 8.20043 18.1496 8.02126 18.4363C7.87793 18.7229 7.69876 18.9738 7.48376 19.1888C7.26876 19.3679 7.01793 19.4575 6.73126 19.4575H6.46251L0 19.995H14.1488V19.4575Z" fill="#EDEDED"/>
</svg>
