<svg width="21" height="19" viewBox="0 0 21 19" fill="none" xmlns="http://www.w3.org/2000/svg">
<path d="M2.21808 3.01001C2.28975 3.33251 2.32558 3.61917 2.32558 3.87V16.0175L18.2893 18.0125V13.4913H17.7518C17.7518 14.1721 17.4652 14.7633 16.8918 15.265C16.3543 15.7667 15.6735 16.0175 14.8493 16.0175H5.92683V2.41876H16.9456C18.1281 2.41876 18.9881 2.74126 19.5256 3.38625C20.0989 3.99542 20.3856 4.71209 20.3856 5.53626H20.9231V0.537506H0.283081V1.07501H0.55183C0.838497 1.07501 1.08933 1.18251 1.30433 1.3975C1.55517 1.57667 1.75225 1.80959 1.89558 2.09626C2.03891 2.38292 2.14642 2.68751 2.21808 3.01001Z" fill="#EDEDED"/>
</svg>
