<svg width="28" height="18" viewBox="0 0 28 18" fill="none" xmlns="http://www.w3.org/2000/svg">
<path d="M8.3975 2.4725C8.46916 2.795 8.505 3.08167 8.505 3.3325V15.48L24.4687 17.475V12.9537H23.9312C23.9312 13.6346 23.6446 14.2258 23.0712 14.7275C22.5337 15.2292 21.8529 15.48 21.0287 15.48H12.1062V1.88125H23.125C24.3075 1.88125 25.1675 2.20375 25.705 2.84875C26.2783 3.45792 26.565 4.17458 26.565 4.99875H27.1025V0H0.0100098L6.4625 0.537499H6.73125C7.01791 0.537499 7.26875 0.644999 7.48375 0.859999C7.73458 1.03917 7.93166 1.27208 8.075 1.55875C8.21833 1.84542 8.32583 2.15 8.3975 2.4725Z" fill="#EDEDED"/>
</svg>
